<?xml version="1.0" encoding="UTF-8" standalone="no"?>
<!-- Created with Inkscape (http://www.inkscape.org/) -->

<svg
   width="153.8475mm"
   height="73.696732mm"
   viewBox="0 0 153.8475 73.696732"
   version="1.1"
   id="svg5"
   inkscape:version="1.2.2 (732a01da63, 2022-12-09)"
   sodipodi:docname="logo.svg"
   inkscape:export-filename="logo2.svg"
   inkscape:export-xdpi="96"
   inkscape:export-ydpi="96"
   xmlns:inkscape="http://www.inkscape.org/namespaces/inkscape"
   xmlns:sodipodi="http://sodipodi.sourceforge.net/DTD/sodipodi-0.dtd"
   xmlns="http://www.w3.org/2000/svg"
   xmlns:svg="http://www.w3.org/2000/svg">
  <sodipodi:namedview
     id="namedview7"
     pagecolor="#ffffff"
     bordercolor="#000000"
     borderopacity="0.25"
     inkscape:showpageshadow="2"
     inkscape:pageopacity="0.0"
     inkscape:pagecheckerboard="0"
     inkscape:deskcolor="#d1d1d1"
     inkscape:document-units="mm"
     showgrid="false"
     inkscape:zoom="1.0687262"
     inkscape:cx="98.247801"
     inkscape:cy="440.24372"
     inkscape:window-width="2400"
     inkscape:window-height="1271"
     inkscape:window-x="-9"
     inkscape:window-y="-9"
     inkscape:window-maximized="1"
     inkscape:current-layer="g476" />
  <defs
     id="defs2">
    <rect
       x="167.48911"
       y="130.06137"
       width="450.06851"
       height="73.919777"
       id="rect1586" />
    <clipPath
       clipPathUnits="userSpaceOnUse"
       id="clipEmfPath1">
      <path
         d="M 0.67779528,0 H 472.42331 V 155.89291 H 0.67779528 Z"
         id="path132" />
    </clipPath>
    <clipPath
       clipPathUnits="userSpaceOnUse"
       id="clipEmfPath1-2">
      <path
         d="M 0.67779528,0 H 472.42331 V 155.89291 H 0.67779528 Z"
         id="path132-8" />
    </clipPath>
    <clipPath
       clipPathUnits="userSpaceOnUse"
       id="clipEmfPath1-2-2">
      <path
         d="M 0.67779528,0 H 472.42331 V 155.89291 H 0.67779528 Z"
         id="path132-8-4" />
    </clipPath>
    <clipPath
       clipPathUnits="userSpaceOnUse"
       id="clipEmfPath1-2-7">
      <path
         d="M 0.67779528,0 H 472.42331 V 155.89291 H 0.67779528 Z"
         id="path132-8-6" />
    </clipPath>
    <clipPath
       clipPathUnits="userSpaceOnUse"
       id="clipEmfPath1-2-1">
      <path
         d="M 0.67779528,0 H 472.42331 V 155.89291 H 0.67779528 Z"
         id="path132-8-43" />
    </clipPath>
    <clipPath
       clipPathUnits="userSpaceOnUse"
       id="clipEmfPath1-2-0">
      <path
         d="M 0.67779528,0 H 472.42331 V 155.89291 H 0.67779528 Z"
         id="path132-8-2" />
    </clipPath>
    <clipPath
       clipPathUnits="userSpaceOnUse"
       id="clipEmfPath1-2-74">
      <path
         d="M 0.67779528,0 H 472.42331 V 155.89291 H 0.67779528 Z"
         id="path132-8-7" />
    </clipPath>
    <clipPath
       clipPathUnits="userSpaceOnUse"
       id="clipEmfPath1-2-74-9">
      <path
         d="M 0.67779528,0 H 472.42331 V 155.89291 H 0.67779528 Z"
         id="path132-8-7-1" />
    </clipPath>
    <clipPath
       clipPathUnits="userSpaceOnUse"
       id="clipEmfPath1-2-74-9-2">
      <path
         d="M 0.67779528,0 H 472.42331 V 155.89291 H 0.67779528 Z"
         id="path132-8-7-1-1" />
    </clipPath>
    <clipPath
       clipPathUnits="userSpaceOnUse"
       id="clipEmfPath1-2-74-9-9">
      <path
         d="M 0.67779528,0 H 472.42331 V 155.89291 H 0.67779528 Z"
         id="path132-8-7-1-6" />
    </clipPath>
    <clipPath
       clipPathUnits="userSpaceOnUse"
       id="clipEmfPath1-2-74-9-28">
      <path
         d="M 0.67779528,0 H 472.42331 V 155.89291 H 0.67779528 Z"
         id="path132-8-7-1-61" />
    </clipPath>
    <clipPath
       clipPathUnits="userSpaceOnUse"
       id="clipEmfPath1-2-74-9-6">
      <path
         d="M 0.67779528,0 H 472.42331 V 155.89291 H 0.67779528 Z"
         id="path132-8-7-1-3" />
    </clipPath>
    <clipPath
       clipPathUnits="userSpaceOnUse"
       id="clipEmfPath1-2-74-9-7">
      <path
         d="M 0.67779528,0 H 472.42331 V 155.89291 H 0.67779528 Z"
         id="path132-8-7-1-0" />
    </clipPath>
  </defs>
  <g
     inkscape:label="Calque 1"
     inkscape:groupmode="layer"
     id="layer1"
     transform="translate(-34.774976,-51.329962)">
    <g
       id="g476">
      <g
         id="g1441"
         transform="rotate(90,111.69873,95.360968)">
        <path
           style="fill:none;stroke:#1f2542;stroke-width:1.23424px;stroke-linecap:butt;stroke-linejoin:miter;stroke-miterlimit:8;stroke-dasharray:none;stroke-opacity:1"
           d="M 82.65012,167.61727 V 27.670138"
           id="path138" />
        <path
           style="fill:none;stroke:#c00000;stroke-width:1.23424px;stroke-linecap:butt;stroke-linejoin:miter;stroke-miterlimit:8;stroke-dasharray:none;stroke-opacity:1"
           d="M 112.11307,172.28472 V 160.62119"
           id="path140" />
        <path
           style="fill:none;stroke:#ff0000;stroke-width:1.23424px;stroke-linecap:butt;stroke-linejoin:miter;stroke-miterlimit:8;stroke-dasharray:none;stroke-opacity:1"
           d="M 112.11307,159.20182 V 147.53829"
           id="path142" />
        <path
           style="fill:none;stroke:#ffc000;stroke-width:1.23424px;stroke-linecap:butt;stroke-linejoin:miter;stroke-miterlimit:8;stroke-dasharray:none;stroke-opacity:1"
           d="M 112.11307,146.36577 V 134.70224"
           id="path144" />
        <path
           style="fill:none;stroke:#ffff00;stroke-width:1.23424px;stroke-linecap:butt;stroke-linejoin:miter;stroke-miterlimit:8;stroke-dasharray:none;stroke-opacity:1"
           d="M 112.11307,133.5297 V 121.86612"
           id="path146" />
        <path
           style="fill:none;stroke:#92d050;stroke-width:1.23424px;stroke-linecap:butt;stroke-linejoin:miter;stroke-miterlimit:8;stroke-dasharray:none;stroke-opacity:1"
           d="m 112.11307,120.44674 v -11.6636"
           id="path148" />
        <path
           style="fill:none;stroke:#00b050;stroke-width:1.23424px;stroke-linecap:butt;stroke-linejoin:miter;stroke-miterlimit:8;stroke-dasharray:none;stroke-opacity:1"
           d="M 112.11307,107.61061 V 95.947032"
           id="path150" />
        <path
           style="fill:none;stroke:#00b0f0;stroke-width:1.23424px;stroke-linecap:butt;stroke-linejoin:miter;stroke-miterlimit:8;stroke-dasharray:none;stroke-opacity:1"
           d="M 112.11307,94.527662 V 82.864132"
           id="path152" />
        <path
           style="fill:none;stroke:#0070c0;stroke-width:1.23424px;stroke-linecap:butt;stroke-linejoin:miter;stroke-miterlimit:8;stroke-dasharray:none;stroke-opacity:1"
           d="M 112.11307,81.691602 V 70.028092"
           id="path154" />
        <path
           style="fill:none;stroke:#002060;stroke-width:1.23424px;stroke-linecap:butt;stroke-linejoin:miter;stroke-miterlimit:8;stroke-dasharray:none;stroke-opacity:1"
           d="M 112.11307,68.855552 V 57.192022"
           id="path156" />
        <path
           style="fill:none;stroke:#7030a0;stroke-width:1.23424px;stroke-linecap:butt;stroke-linejoin:miter;stroke-miterlimit:8;stroke-dasharray:none;stroke-opacity:1"
           d="M 112.11307,55.772652 V 44.109122"
           id="path158" />
        <path
           style="fill:none;stroke:#cc00cc;stroke-width:1.23424px;stroke-linecap:butt;stroke-linejoin:miter;stroke-miterlimit:8;stroke-dasharray:none;stroke-opacity:1"
           d="M 112.11307,42.936602 V 31.273065"
           id="path160" />
        <path
           style="fill:none;stroke:#ff99ff;stroke-width:3.38898px;stroke-linecap:butt;stroke-linejoin:miter;stroke-miterlimit:8;stroke-dasharray:none;stroke-opacity:1"
           clip-path="url(#clipEmfPath1)"
           d="m 437.85575,75.235276 h 32.02582"
           id="path162"
           transform="matrix(0,-0.36419135,0.36419135,0,84.713031,189.56402)" />
        <path
           style="fill:none;stroke:#c00000;stroke-width:3.38898px;stroke-linecap:butt;stroke-linejoin:miter;stroke-miterlimit:8;stroke-dasharray:none;stroke-opacity:1"
           clip-path="url(#clipEmfPath1)"
           d="M 47.445669,153.85953 H 79.471496"
           id="path196"
           transform="matrix(0,-0.36419135,0.36419135,0,84.713031,189.56402)" />
        <path
           style="fill:none;stroke:#c00000;stroke-width:3.38898px;stroke-linecap:butt;stroke-linejoin:miter;stroke-miterlimit:8;stroke-dasharray:none;stroke-opacity:1"
           clip-path="url(#clipEmfPath1)"
           d="M 83.368819,153.85953 H 115.39465"
           id="path198"
           transform="matrix(0,-0.36419135,0.36419135,0,84.713031,189.56402)" />
        <path
           style="fill:none;stroke:#92d050;stroke-width:3.38898px;stroke-linecap:butt;stroke-linejoin:miter;stroke-miterlimit:8;stroke-dasharray:none;stroke-opacity:1"
           clip-path="url(#clipEmfPath1)"
           d="M 118.61417,153.85953 H 150.64"
           id="path200"
           transform="matrix(0,-0.36419135,0.36419135,0,84.713031,189.56402)" />
        <path
           style="fill:none;stroke:#92d050;stroke-width:3.38898px;stroke-linecap:butt;stroke-linejoin:miter;stroke-miterlimit:8;stroke-dasharray:none;stroke-opacity:1"
           clip-path="url(#clipEmfPath1)"
           d="m 153.85953,153.85953 h 32.02582"
           id="path202"
           transform="matrix(0,-0.36419135,0.36419135,0,84.713031,189.56402)" />
        <path
           style="fill:none;stroke:#92d050;stroke-width:3.38898px;stroke-linecap:butt;stroke-linejoin:miter;stroke-miterlimit:8;stroke-dasharray:none;stroke-opacity:1"
           clip-path="url(#clipEmfPath1)"
           d="M 189.78268,153.85953 H 221.8085"
           id="path204"
           transform="matrix(0,-0.36419135,0.36419135,0,84.713031,189.56402)" />
        <path
           style="fill:none;stroke:#92d050;stroke-width:3.38898px;stroke-linecap:butt;stroke-linejoin:miter;stroke-miterlimit:8;stroke-dasharray:none;stroke-opacity:1"
           clip-path="url(#clipEmfPath1)"
           d="m 225.02803,153.85953 h 32.02583"
           id="path206"
           transform="matrix(0,-0.36419135,0.36419135,0,84.713031,189.56402)" />
        <path
           style="fill:none;stroke:#cc00cc;stroke-width:3.38898px;stroke-linecap:butt;stroke-linejoin:miter;stroke-miterlimit:8;stroke-dasharray:none;stroke-opacity:1"
           clip-path="url(#clipEmfPath1)"
           d="m 260.95118,153.85953 h 32.02583"
           id="path208"
           transform="matrix(0,-0.36419135,0.36419135,0,84.713031,189.56402)" />
        <path
           style="fill:none;stroke:#cc00cc;stroke-width:3.38898px;stroke-linecap:butt;stroke-linejoin:miter;stroke-miterlimit:8;stroke-dasharray:none;stroke-opacity:1"
           clip-path="url(#clipEmfPath1)"
           d="m 296.19654,153.85953 h 32.02582"
           id="path210"
           transform="matrix(0,-0.36419135,0.36419135,0,84.713031,189.56402)" />
        <path
           style="fill:none;stroke:#cc00cc;stroke-width:3.38898px;stroke-linecap:butt;stroke-linejoin:miter;stroke-miterlimit:8;stroke-dasharray:none;stroke-opacity:1"
           clip-path="url(#clipEmfPath1)"
           d="m 331.44189,153.85953 h 32.02583"
           id="path212"
           transform="matrix(0,-0.36419135,0.36419135,0,84.713031,189.56402)" />
        <path
           style="fill:none;stroke:#cc00cc;stroke-width:3.38898px;stroke-linecap:butt;stroke-linejoin:miter;stroke-miterlimit:8;stroke-dasharray:none;stroke-opacity:1"
           clip-path="url(#clipEmfPath1)"
           d="m 367.36504,153.85953 h 32.02583"
           id="path214"
           transform="matrix(0,-0.36419135,0.36419135,0,84.713031,189.56402)" />
        <path
           style="fill:none;stroke:#cc00cc;stroke-width:3.38898px;stroke-linecap:butt;stroke-linejoin:miter;stroke-miterlimit:8;stroke-dasharray:none;stroke-opacity:1"
           clip-path="url(#clipEmfPath1)"
           d="m 402.61039,153.85953 h 32.02583"
           id="path216"
           transform="matrix(0,-0.36419135,0.36419135,0,84.713031,189.56402)" />
        <path
           style="fill:none;stroke:#cc00cc;stroke-width:3.38898px;stroke-linecap:butt;stroke-linejoin:miter;stroke-miterlimit:8;stroke-dasharray:none;stroke-opacity:1"
           clip-path="url(#clipEmfPath1)"
           d="m 437.85575,153.85953 h 32.02582"
           id="path218"
           transform="matrix(0,-0.36419135,0.36419135,0,84.713031,189.56402)" />
        <path
           style="fill:#3e4a83;fill-opacity:1;fill-rule:nonzero;stroke:#3e4a83;stroke-width:0.0423622px;stroke-linecap:butt;stroke-linejoin:round;stroke-miterlimit:10;stroke-dasharray:none;stroke-opacity:1"
           clip-path="url(#clipEmfPath1)"
           d="M 55.240315,83.368819 V 140.81197 H 54.56252 V 83.368819 Z m 3.050079,56.299371 -3.388977,6.77795 -3.388976,-6.77795 z"
           id="path220"
           transform="matrix(0,-0.36419135,0.36419135,0,84.713031,189.56402)" />
        <path
           style="fill:#3e4a83;fill-opacity:1;fill-rule:nonzero;stroke:#3e4a83;stroke-width:0.0423622px;stroke-linecap:butt;stroke-linejoin:round;stroke-miterlimit:10;stroke-dasharray:none;stroke-opacity:1"
           clip-path="url(#clipEmfPath1)"
           d="m 55.197953,83.19937 41.133701,58.45984 -0.550709,0.38126 -41.133701,-58.45984 z m 42.997638,55.79102 1.101417,7.45575 -6.650866,-3.55842 z"
           id="path222"
           transform="matrix(0,-0.36419135,0.36419135,0,84.713031,189.56402)" />
        <path
           style="fill:#3e4a83;fill-opacity:1;fill-rule:nonzero;stroke:#3e4a83;stroke-width:0.0423622px;stroke-linecap:butt;stroke-linejoin:round;stroke-miterlimit:10;stroke-dasharray:none;stroke-opacity:1"
           clip-path="url(#clipEmfPath1)"
           d="m 200.71213,82.479213 -61.97591,59.518897 0.46598,0.46598 62.01827,-59.518893 z m -63.28914,56.511177 -2.54173,7.15922 7.24394,-2.2452 z"
           id="path224"
           transform="matrix(0,-0.36419135,0.36419135,0,84.713031,189.56402)" />
        <path
           style="fill:#3e4a83;fill-opacity:1;fill-rule:nonzero;stroke:#3e4a83;stroke-width:0.0423622px;stroke-linecap:butt;stroke-linejoin:round;stroke-miterlimit:10;stroke-dasharray:none;stroke-opacity:1"
           clip-path="url(#clipEmfPath1)"
           d="m 200.50031,82.563937 -29.48409,58.544563 0.63543,0.3389 29.44174,-58.586928 z m -31.68692,56.172283 -0.0424,7.58284 6.10016,-4.53276 z"
           id="path226"
           transform="matrix(0,-0.36419135,0.36419135,0,84.713031,189.56402)" />
        <path
           style="fill:#3e4a83;fill-opacity:1;fill-rule:nonzero;stroke:#3e4a83;stroke-width:0.0423622px;stroke-linecap:butt;stroke-linejoin:round;stroke-miterlimit:10;stroke-dasharray:none;stroke-opacity:1"
           clip-path="url(#clipEmfPath1)"
           d="m 200.2885,83.368819 5.93071,57.443151 -0.67779,0.0847 -5.88835,-57.485509 z m 8.8537,56.002831 -2.66881,7.07449 -4.06678,-6.39669 z"
           id="path228"
           transform="matrix(0,-0.36419135,0.36419135,0,84.713031,189.56402)" />
        <path
           style="fill:#3e4a83;fill-opacity:1;fill-rule:nonzero;stroke:#3e4a83;stroke-width:0.0423622px;stroke-linecap:butt;stroke-linejoin:round;stroke-miterlimit:10;stroke-dasharray:none;stroke-opacity:1"
           clip-path="url(#clipEmfPath1)"
           d="m 200.24614,82.521575 41.1337,58.968185 -0.55071,0.38126 -41.1337,-58.968185 z m 42.99764,56.299365 1.10142,7.49812 -6.69323,-3.60079 z"
           id="path230"
           transform="matrix(0,-0.36419135,0.36419135,0,84.713031,189.56402)" />
        <path
           style="fill:#3e4a83;fill-opacity:1;fill-rule:nonzero;stroke:#3e4a83;stroke-width:0.0423622px;stroke-linecap:butt;stroke-linejoin:round;stroke-miterlimit:10;stroke-dasharray:none;stroke-opacity:1"
           clip-path="url(#clipEmfPath1)"
           d="m 415.44614,83.072283 -129.84016,60.705037 0.29654,0.59307 129.79779,-60.662673 z m -130.09433,57.443147 -4.74457,5.93071 7.58284,0.21181 z"
           id="path232"
           transform="matrix(0,-0.36419135,0.36419135,0,84.713031,189.56402)" />
        <path
           style="fill:#3e4a83;fill-opacity:1;fill-rule:nonzero;stroke:#3e4a83;stroke-width:0.0423622px;stroke-linecap:butt;stroke-linejoin:round;stroke-miterlimit:10;stroke-dasharray:none;stroke-opacity:1"
           clip-path="url(#clipEmfPath1)"
           d="m 415.78504,83.114646 -93.95937,60.027244 0.3389,0.55071 94.00173,-60.027246 z m -94.67953,56.850074 -3.89732,6.48142 7.54047,-0.76252 z"
           id="path234"
           transform="matrix(0,-0.36419135,0.36419135,0,84.713031,189.56402)" />
        <path
           style="fill:#3e4a83;fill-opacity:1;fill-rule:nonzero;stroke:#3e4a83;stroke-width:0.0423622px;stroke-linecap:butt;stroke-linejoin:round;stroke-miterlimit:10;stroke-dasharray:none;stroke-opacity:1"
           clip-path="url(#clipEmfPath1)"
           d="m 415.4885,82.479213 -64.51763,59.773067 0.46598,0.46599 64.51764,-59.773073 z M 349.7,139.24457 l -2.66882,7.07449 7.2863,-2.11812 z"
           id="path236"
           transform="matrix(0,-0.36419135,0.36419135,0,84.713031,189.56402)" />
        <path
           style="fill:#3e4a83;fill-opacity:1;fill-rule:nonzero;stroke:#3e4a83;stroke-width:0.0423622px;stroke-linecap:butt;stroke-linejoin:round;stroke-miterlimit:10;stroke-dasharray:none;stroke-opacity:1"
           clip-path="url(#clipEmfPath1)"
           d="m 415.36142,82.563937 -32.02583,58.714013 0.59307,0.3389 32.02583,-58.756378 z m -34.14394,56.257003 -0.29654,7.58284 6.22725,-4.32095 z"
           id="path238"
           transform="matrix(0,-0.36419135,0.36419135,0,84.713031,189.56402)" />
        <path
           style="fill:#3e4a83;fill-opacity:1;fill-rule:nonzero;stroke:#3e4a83;stroke-width:0.0423622px;stroke-linecap:butt;stroke-linejoin:round;stroke-miterlimit:10;stroke-dasharray:none;stroke-opacity:1"
           clip-path="url(#clipEmfPath1)"
           d="m 415.14961,83.368819 v 57.443151 h 0.67779 V 83.368819 Z m -3.05008,56.299371 3.38897,6.77795 3.38898,-6.77795 z"
           id="path240"
           transform="matrix(0,-0.36419135,0.36419135,0,84.713031,189.56402)" />
        <path
           style="fill:#3e4a83;fill-opacity:1;fill-rule:nonzero;stroke:#3e4a83;stroke-width:0.0423622px;stroke-linecap:butt;stroke-linejoin:round;stroke-miterlimit:10;stroke-dasharray:none;stroke-opacity:1"
           clip-path="url(#clipEmfPath1)"
           d="m 415.78504,83.19937 35.24535,58.24803 -0.59307,0.3389 -35.20299,-58.20567 z m 37.27874,55.7063 0.59307,7.54047 -6.39669,-4.02441 z"
           id="path242"
           transform="matrix(0,-0.36419135,0.36419135,0,84.713031,189.56402)" />
        <path
           style="fill:#3e4a83;fill-opacity:1;fill-rule:nonzero;stroke:#3e4a83;stroke-width:0.0423622px;stroke-linecap:butt;stroke-linejoin:round;stroke-miterlimit:10;stroke-dasharray:none;stroke-opacity:1"
           clip-path="url(#clipEmfPath1-2)"
           d="m 415.78504,83.19937 35.24535,58.24803 -0.59307,0.3389 -35.20299,-58.20567 z m 37.27874,55.7063 0.59307,7.54047 -6.39669,-4.02441 z"
           id="path242-4"
           transform="matrix(0.10114846,-0.3498633,0.3498633,0.10114846,12.750772,169.09187)" />
        <path
           style="fill:#3e4a83;fill-opacity:1;fill-rule:nonzero;stroke:#3e4a83;stroke-width:0.0423622px;stroke-linecap:butt;stroke-linejoin:round;stroke-miterlimit:10;stroke-dasharray:none;stroke-opacity:1"
           clip-path="url(#clipEmfPath1-2-2)"
           d="m 415.78504,83.19937 35.24535,58.24803 -0.59307,0.3389 -35.20299,-58.20567 z m 37.27874,55.7063 0.59307,7.54047 -6.39669,-4.02441 z"
           id="path242-4-0"
           transform="matrix(0.10114846,-0.3498633,0.3498633,0.10114846,12.750772,181.35347)"
           inkscape:transform-center-x="-5.7769019"
           inkscape:transform-center-y="9.4531116" />
        <path
           style="fill:#3e4a83;fill-opacity:1;fill-rule:nonzero;stroke:#3e4a83;stroke-width:0.0423622px;stroke-linecap:butt;stroke-linejoin:round;stroke-miterlimit:10;stroke-dasharray:none;stroke-opacity:1"
           clip-path="url(#clipEmfPath1-2-7)"
           d="m 415.78504,83.19937 35.24535,58.24803 -0.59307,0.3389 -35.20299,-58.20567 z m 37.27874,55.7063 0.59307,7.54047 -6.39669,-4.02441 z"
           id="path242-4-6"
           transform="matrix(0.10114846,-0.3498633,0.3498633,0.10114846,12.750772,193.61508)" />
        <path
           style="fill:#3e4a83;fill-opacity:1;fill-rule:nonzero;stroke:#3e4a83;stroke-width:0.0423622px;stroke-linecap:butt;stroke-linejoin:round;stroke-miterlimit:10;stroke-dasharray:none;stroke-opacity:1"
           clip-path="url(#clipEmfPath1-2-1)"
           d="m 415.78504,83.19937 35.24535,58.24803 -0.59307,0.3389 -35.20299,-58.20567 z m 37.27874,55.7063 0.59307,7.54047 -6.39669,-4.02441 z"
           id="path242-4-68"
           transform="matrix(0.10114846,-0.3498633,0.3498633,0.10114846,12.750772,205.87668)" />
        <path
           style="fill:#3e4a83;fill-opacity:1;fill-rule:nonzero;stroke:#3e4a83;stroke-width:0.0423622px;stroke-linecap:butt;stroke-linejoin:round;stroke-miterlimit:10;stroke-dasharray:none;stroke-opacity:1"
           clip-path="url(#clipEmfPath1-2-0)"
           d="m 415.78504,83.19937 35.24535,58.24803 -0.59307,0.3389 -35.20299,-58.20567 z m 37.27874,55.7063 0.59307,7.54047 -6.39669,-4.02441 z"
           id="path242-4-5"
           transform="matrix(0.10114846,-0.3498633,0.3498633,0.10114846,12.750772,218.13828)" />
        <path
           style="fill:#3e4a83;fill-opacity:1;fill-rule:nonzero;stroke:#3e4a83;stroke-width:0.0423622px;stroke-linecap:butt;stroke-linejoin:round;stroke-miterlimit:10;stroke-dasharray:none;stroke-opacity:1"
           clip-path="url(#clipEmfPath1-2-74)"
           d="m 415.78504,83.19937 35.24535,58.24803 -0.59307,0.3389 -35.20299,-58.20567 z m 37.27874,55.7063 0.59307,7.54047 -6.39669,-4.02441 z"
           id="path242-4-7"
           transform="matrix(0.10114846,-0.3498633,0.3498633,0.10114846,12.750772,230.39989)" />
        <path
           style="fill:#3e4a83;fill-opacity:1;fill-rule:nonzero;stroke:#3e4a83;stroke-width:0.0423622px;stroke-linecap:butt;stroke-linejoin:round;stroke-miterlimit:10;stroke-dasharray:none;stroke-opacity:1"
           clip-path="url(#clipEmfPath1-2-74-9)"
           d="m 415.78504,83.19937 35.24535,58.24803 -0.59307,0.3389 -35.20299,-58.20567 z m 37.27874,55.7063 0.59307,7.54047 -6.39669,-4.02441 z"
           id="path242-4-7-7"
           transform="matrix(0.10114846,0.3498633,0.3498633,-0.10114846,12.750772,-38.620004)" />
        <path
           style="fill:#3e4a83;fill-opacity:1;fill-rule:nonzero;stroke:#3e4a83;stroke-width:0.0423622px;stroke-linecap:butt;stroke-linejoin:round;stroke-miterlimit:10;stroke-dasharray:none;stroke-opacity:1"
           clip-path="url(#clipEmfPath1-2-74-9-2)"
           d="m 415.78504,83.19937 35.24535,58.24803 -0.59307,0.3389 -35.20299,-58.20567 z m 37.27874,55.7063 0.59307,7.54047 -6.39669,-4.02441 z"
           id="path242-4-7-7-1"
           transform="matrix(0.10114846,0.3498633,0.3498633,-0.10114846,12.750772,-26.3584)" />
        <path
           style="fill:#3e4a83;fill-opacity:1;fill-rule:nonzero;stroke:#3e4a83;stroke-width:0.0423622px;stroke-linecap:butt;stroke-linejoin:round;stroke-miterlimit:10;stroke-dasharray:none;stroke-opacity:1"
           clip-path="url(#clipEmfPath1-2-74-9-9)"
           d="m 415.78504,83.19937 35.24535,58.24803 -0.59307,0.3389 -35.20299,-58.20567 z m 37.27874,55.7063 0.59307,7.54047 -6.39669,-4.02441 z"
           id="path242-4-7-7-5"
           transform="matrix(0.10114846,0.3498633,0.3498633,-0.10114846,12.750772,-14.096797)" />
        <path
           style="fill:#3e4a83;fill-opacity:1;fill-rule:nonzero;stroke:#3e4a83;stroke-width:0.0423622px;stroke-linecap:butt;stroke-linejoin:round;stroke-miterlimit:10;stroke-dasharray:none;stroke-opacity:1"
           clip-path="url(#clipEmfPath1-2-74-9-28)"
           d="m 415.78504,83.19937 35.24535,58.24803 -0.59307,0.3389 -35.20299,-58.20567 z m 37.27874,55.7063 0.59307,7.54047 -6.39669,-4.02441 z"
           id="path242-4-7-7-9"
           transform="matrix(0.10114846,0.3498633,0.3498633,-0.10114846,12.750772,-1.8351932)" />
        <path
           style="fill:#3e4a83;fill-opacity:1;fill-rule:nonzero;stroke:#3e4a83;stroke-width:0.0423622px;stroke-linecap:butt;stroke-linejoin:round;stroke-miterlimit:10;stroke-dasharray:none;stroke-opacity:1"
           clip-path="url(#clipEmfPath1-2-74-9-6)"
           d="m 415.78504,83.19937 35.24535,58.24803 -0.59307,0.3389 -35.20299,-58.20567 z m 37.27874,55.7063 0.59307,7.54047 -6.39669,-4.02441 z"
           id="path242-4-7-7-90"
           transform="matrix(0.10114846,0.3498633,0.3498633,-0.10114846,12.750772,10.42641)" />
        <path
           style="fill:#3e4a83;fill-opacity:1;fill-rule:nonzero;stroke:#3e4a83;stroke-width:0.0423622px;stroke-linecap:butt;stroke-linejoin:round;stroke-miterlimit:10;stroke-dasharray:none;stroke-opacity:1"
           clip-path="url(#clipEmfPath1-2-74-9-7)"
           d="m 415.78504,83.19937 35.24535,58.24803 -0.59307,0.3389 -35.20299,-58.20567 z m 37.27874,55.7063 0.59307,7.54047 -6.39669,-4.02441 z"
           id="path242-4-7-7-11"
           transform="matrix(0.10114846,0.3498633,0.3498633,-0.10114846,12.750772,22.688014)" />
      </g>
      <text
         xml:space="preserve"
         transform="scale(0.26458333)"
         id="text1584"
         style="font-weight:bold;font-size:16px;font-family:Arial;-inkscape-font-specification:'Arial Bold';text-align:center;white-space:pre;shape-inside:url(#rect1586);fill:#000000;stroke:#000000;stroke-width:4.53543;stroke-miterlimit:3.8;stroke-dasharray:18.1417, 9.07087;stroke-opacity:0" />
      <text
         xml:space="preserve"
         style="font-weight:bold;font-size:13.5387px;font-family:Arial;-inkscape-font-specification:'Arial Bold';text-align:center;text-anchor:middle;fill:#000000;fill-opacity:1;stroke:#000000;stroke-width:3.83773;stroke-miterlimit:3.8;stroke-dasharray:15.3509, 7.67547;stroke-opacity:0"
         x="111.29042"
         y="62.940102"
         id="text1592"><tspan
           sodipodi:role="line"
           id="tspan1590"
           style="font-style:normal;font-variant:normal;font-weight:bold;font-stretch:normal;font-family:Arial;-inkscape-font-specification:'Arial Bold';fill:#000000;fill-opacity:1;stroke-width:3.83773"
           x="111.29042"
           y="62.940102">RePeriods</tspan></text>
    </g>
  </g>
</svg>
